<svg width="208" height="208" viewBox="0 0 208 208" fill="none" xmlns="http://www.w3.org/2000/svg">
<path d="M132.347 47.9809L119.024 61.3041C118.558 61.7707 118.373 62.4489 118.537 63.0851L118.527 63.0501L118.537 63.0899C118.621 63.4151 118.792 63.7074 119.022 63.9378C119.242 64.1576 119.52 64.3236 119.829 64.4126L122.181 65.085C122.709 65.2371 123.16 65.5027 123.552 65.8919C124.154 66.4965 124.479 67.2848 124.481 68.1386C124.479 68.9923 124.153 69.7817 123.553 70.3865C122.947 70.9875 122.158 71.3138 121.303 71.3174L121.307 71.3181C120.449 71.3147 119.661 70.9878 119.057 70.3866C118.669 69.9959 118.402 69.5447 118.248 69.0156L117.578 66.6642C117.489 66.3547 117.324 66.0783 117.103 65.8572C116.873 65.6267 116.58 65.4562 116.251 65.3713C115.613 65.2071 114.936 65.393 114.47 65.8589L104.501 75.8277L99.1621 70.489C100.936 68.6592 101.927 66.2477 101.925 63.6959C101.928 61.0891 100.905 58.6202 99.0597 56.7772C97.2142 54.9294 94.7448 53.9067 92.1397 53.9107C89.5888 53.9071 87.178 54.9005 85.3478 56.6747L76.6533 47.9802C75.9254 47.2534 74.7463 47.2534 74.019 47.9808L46.4603 75.5394C45.1378 76.8599 44.4016 78.6322 44.4039 80.4987C44.4046 82.3508 45.1502 84.1476 46.4612 85.4609L99.5397 138.539C100.859 139.861 102.632 140.595 104.499 140.594C106.351 140.593 108.146 139.85 109.46 138.539L162.544 85.4548C163.852 84.1449 164.595 82.3485 164.595 80.4983C164.597 78.6305 163.862 76.8599 162.54 75.5396L134.981 47.9811C134.254 47.2536 133.075 47.2536 132.347 47.9809ZM50.5345 81.3876C50.2304 81.0835 50.165 80.7351 50.1649 80.5035C50.1655 80.2643 50.2291 79.9153 50.5326 79.6117L75.3351 54.8092L85.9029 65.3769C86.1579 65.6319 86.528 65.7318 86.877 65.6424C87.0548 65.5956 87.2133 65.5028 87.3397 65.3765C87.4601 65.256 87.5507 65.1068 87.5988 64.9373L88.2706 62.5859C88.4606 61.9233 88.8044 61.3385 89.2933 60.8496C90.0528 60.0901 91.0639 59.6709 92.1381 59.6703C93.2153 59.6714 94.2269 60.0912 94.986 60.8503C95.745 61.6093 96.1638 62.6199 96.1648 63.6946C96.1642 64.7711 95.745 65.7822 94.9854 66.5417C94.496 67.0312 93.9118 67.3745 93.2497 67.5639L90.8972 68.2368C90.7284 68.2842 90.5786 68.3754 90.4587 68.4953C90.3324 68.6216 90.2393 68.7801 90.194 68.959C90.1034 69.3069 90.2033 69.677 90.4583 69.932L101.026 80.4998L94.4825 87.0433C94.3327 86.8677 94.1767 86.699 94.0164 86.5388C92.3265 84.8489 90.0815 83.9196 87.6964 83.9213C85.31 83.9195 83.0658 84.8494 81.3759 86.5393C79.6865 88.2287 78.7569 90.4729 78.7579 92.8576C78.755 95.2439 79.6854 97.49 81.3747 99.1782C81.5361 99.3395 81.704 99.4947 81.8806 99.6455L75.3364 106.19L50.5345 81.3876ZM130.19 109.664L105.388 134.467C105.084 134.77 104.735 134.834 104.502 134.835C104.264 134.834 103.916 134.769 103.613 134.466L78.8087 109.662L89.3759 99.0947C89.6303 98.8403 89.7314 98.4702 89.6419 98.1223C89.5512 97.7731 89.2834 97.4982 88.9374 97.4L86.5862 96.7269C85.9223 96.5368 85.3382 96.1925 84.8499 95.7053C84.0914 94.9456 83.6724 93.9334 83.6698 92.8598C83.6727 91.7835 84.0908 90.771 84.8492 90.0126C85.6075 89.2542 86.62 88.8361 87.6934 88.8338C88.77 88.8356 89.7822 89.2548 90.5406 90.012C91.03 90.5026 91.3737 91.0876 91.5638 91.7466L92.2351 94.0997C92.3344 94.4471 92.6095 94.7148 92.9574 94.8042C93.3064 94.8948 93.6767 94.7936 93.931 94.5393L104.498 83.9722L111.044 90.5179C110.868 90.6678 110.701 90.8237 110.54 90.9839C108.85 92.6744 107.92 94.9188 107.922 97.3022C107.92 99.6902 108.85 101.935 110.54 103.622C112.227 105.312 114.473 106.243 116.859 106.241C119.245 106.243 121.489 105.313 123.179 103.623C123.341 103.461 123.497 103.293 123.645 103.119L130.19 109.664ZM158.467 79.6119C158.77 79.9147 158.833 80.2631 158.835 80.4983C158.833 80.7358 158.77 81.0844 158.467 81.3872L133.665 106.19L123.097 95.6219C122.842 95.3669 122.473 95.2663 122.124 95.3576C121.945 95.4031 121.787 95.4963 121.661 95.6225C121.541 95.7424 121.45 95.8921 121.402 96.0611L120.728 98.4148C120.539 99.0761 120.196 99.6603 119.706 100.15C118.948 100.908 117.936 101.327 116.862 101.329C115.787 101.328 114.774 100.909 114.015 100.15C113.255 99.3895 112.837 98.3783 112.836 97.3036C112.837 96.2292 113.255 95.2172 114.013 94.4563C114.499 93.9703 115.084 93.6266 115.748 93.4346L118.102 92.7623C118.272 92.7143 118.421 92.6239 118.542 92.5033C118.668 92.377 118.761 92.2184 118.808 92.0408C118.897 91.6918 118.797 91.3215 118.542 91.0665L107.973 80.4976L114.517 73.9536C114.667 74.1289 114.823 74.2981 114.984 74.4593C116.671 76.1475 118.916 77.0773 121.302 77.0767C123.69 77.0792 125.935 76.1488 127.625 74.4595C129.314 72.7701 130.244 70.5257 130.243 68.1388C130.245 65.7531 129.314 63.5098 127.624 61.8199C127.463 61.6585 127.295 61.5031 127.119 61.3521L133.664 54.8076L158.468 79.6116L158.467 79.6119Z" fill="white"/>
<path d="M22.1562 157.523L19.9688 178.5H15.1836L19.9688 150.375H27.0586L33.6406 171.839L40.3008 150.375H47.3906L51.375 178.5H43.4844L41.1602 158.07L35.6719 178.5H28.582L22.1562 157.523ZM60.9648 167.796C61.7721 167.979 62.5794 168.122 63.3867 168.226C64.194 168.33 65.0078 168.382 65.8281 168.382C66.6875 168.382 67.4818 168.304 68.2109 168.148C68.9531 167.979 69.5911 167.705 70.125 167.328C70.6719 166.937 71.1016 166.423 71.4141 165.785C71.7266 165.147 71.8828 164.352 71.8828 163.402C71.8828 162.634 71.7786 161.931 71.5703 161.292C71.362 160.654 71.0495 160.108 70.6328 159.652C70.2292 159.196 69.7279 158.845 69.1289 158.597C68.5299 158.337 67.8333 158.207 67.0391 158.207C66.2969 158.207 65.6263 158.343 65.0273 158.617C64.4414 158.89 63.9206 159.261 63.4648 159.73C63.0221 160.186 62.638 160.72 62.3125 161.332C62 161.944 61.7396 162.582 61.5312 163.246C61.3229 163.91 61.1732 164.58 61.082 165.257C60.9909 165.934 60.9453 166.572 60.9453 167.171C60.9453 167.276 60.9453 167.38 60.9453 167.484C60.9453 167.588 60.9518 167.692 60.9648 167.796ZM77.2344 163.343C77.2344 164.268 77.0846 165.095 76.7852 165.824C76.4857 166.54 76.0755 167.171 75.5547 167.718C75.0469 168.265 74.4544 168.727 73.7773 169.105C73.1003 169.483 72.3776 169.795 71.6094 170.042C70.8411 170.277 70.0469 170.446 69.2266 170.55C68.4193 170.654 67.6315 170.707 66.8633 170.707C65.8867 170.707 64.9232 170.641 63.9727 170.511C63.0221 170.368 62.0846 170.147 61.1602 169.847C61.3034 170.707 61.5312 171.527 61.8438 172.308C62.1562 173.076 62.5729 173.753 63.0938 174.339C63.6146 174.912 64.2526 175.368 65.0078 175.707C65.776 176.045 66.681 176.214 67.7227 176.214C68.4128 176.214 69.0703 176.11 69.6953 175.902C70.3203 175.694 70.8932 175.401 71.4141 175.023C71.9349 174.645 72.3906 174.196 72.7812 173.675C73.1849 173.154 73.5104 172.575 73.7578 171.937L76.6094 172.992C76.1797 174.02 75.5872 174.912 74.832 175.667C74.0898 176.41 73.2435 177.028 72.293 177.523C71.3555 178.005 70.3529 178.363 69.2852 178.597C68.2305 178.832 67.1823 178.949 66.1406 178.949C64.4219 178.949 62.8333 178.662 61.375 178.089C59.9167 177.503 58.6602 176.69 57.6055 175.648C56.5508 174.606 55.724 173.363 55.125 171.917C54.526 170.472 54.2266 168.89 54.2266 167.171C54.2266 165.453 54.526 163.871 55.125 162.425C55.724 160.98 56.5508 159.736 57.6055 158.695C58.6602 157.653 59.9167 156.846 61.375 156.273C62.8333 155.687 64.4219 155.394 66.1406 155.394C66.974 155.394 67.8268 155.453 68.6992 155.57C69.5716 155.687 70.418 155.876 71.2383 156.136C72.0586 156.384 72.8333 156.709 73.5625 157.113C74.2917 157.516 74.9232 158.018 75.457 158.617C76.0039 159.203 76.4336 159.886 76.7461 160.667C77.0716 161.449 77.2344 162.341 77.2344 163.343ZM116.258 165.335C116.258 166.885 116.076 168.5 115.711 170.179C115.346 171.859 114.832 173.5 114.168 175.101C113.517 176.69 112.729 178.194 111.805 179.613C110.88 181.032 109.852 182.263 108.719 183.304L106.238 181.957C106.616 181.279 106.961 180.518 107.273 179.671C107.586 178.825 107.872 177.933 108.133 176.996C108.393 176.058 108.621 175.095 108.816 174.105C109.012 173.115 109.174 172.132 109.305 171.156C109.448 170.166 109.552 169.209 109.617 168.285C109.682 167.36 109.715 166.494 109.715 165.687C109.715 165.231 109.702 164.736 109.676 164.203C109.65 163.669 109.591 163.135 109.5 162.601C109.422 162.067 109.298 161.559 109.129 161.078C108.96 160.583 108.725 160.147 108.426 159.769C108.139 159.378 107.775 159.072 107.332 158.851C106.902 158.617 106.382 158.5 105.77 158.5C105.171 158.5 104.656 158.662 104.227 158.988C103.81 159.3 103.452 159.71 103.152 160.218C102.853 160.726 102.612 161.299 102.43 161.937C102.26 162.575 102.13 163.22 102.039 163.871C101.948 164.509 101.883 165.121 101.844 165.707C101.818 166.292 101.805 166.787 101.805 167.191V178.5H95.2227V167.992C95.2227 167.536 95.2292 166.989 95.2422 166.351C95.2552 165.7 95.2357 165.023 95.1836 164.32C95.1445 163.617 95.0599 162.92 94.9297 162.23C94.8125 161.527 94.6172 160.902 94.3438 160.355C94.0833 159.808 93.7253 159.365 93.2695 159.027C92.8138 158.675 92.2409 158.5 91.5508 158.5C90.9648 158.5 90.4701 158.662 90.0664 158.988C89.6758 159.313 89.3438 159.736 89.0703 160.257C88.8099 160.765 88.6016 161.345 88.4453 161.996C88.3021 162.634 88.1914 163.278 88.1133 163.929C88.0482 164.567 88.0091 165.179 87.9961 165.765C87.9831 166.338 87.9766 166.813 87.9766 167.191V178.5H81.3555V155.941H83.8945L86.3164 161.195C86.8633 159.372 87.7227 157.953 88.8945 156.937C90.0794 155.908 91.6484 155.394 93.6016 155.394C95.3594 155.394 96.8177 155.759 97.9766 156.488C99.1354 157.217 100.047 158.402 100.711 160.042C101.089 159.326 101.505 158.682 101.961 158.109C102.43 157.536 102.944 157.048 103.504 156.644C104.077 156.24 104.708 155.934 105.398 155.726C106.089 155.505 106.85 155.394 107.684 155.394C109.22 155.394 110.529 155.648 111.609 156.156C112.703 156.651 113.595 157.341 114.285 158.226C114.975 159.111 115.477 160.166 115.789 161.39C116.102 162.601 116.258 163.916 116.258 165.335ZM144.48 167.171C144.48 168.343 144.324 169.444 144.012 170.472C143.699 171.501 143.263 172.451 142.703 173.324C142.156 174.196 141.492 174.984 140.711 175.687C139.93 176.377 139.07 176.963 138.133 177.445C137.208 177.927 136.212 178.298 135.145 178.558C134.09 178.819 133.003 178.949 131.883 178.949C130.763 178.949 129.676 178.819 128.621 178.558C127.566 178.298 126.57 177.927 125.633 177.445C124.708 176.963 123.855 176.377 123.074 175.687C122.293 174.984 121.622 174.196 121.062 173.324C120.516 172.451 120.086 171.501 119.773 170.472C119.461 169.431 119.305 168.33 119.305 167.171C119.305 166.013 119.461 164.919 119.773 163.89C120.086 162.848 120.516 161.891 121.062 161.019C121.622 160.147 122.293 159.365 123.074 158.675C123.855 157.972 124.708 157.38 125.633 156.898C126.57 156.416 127.566 156.045 128.621 155.785C129.676 155.524 130.763 155.394 131.883 155.394C133.003 155.394 134.09 155.524 135.145 155.785C136.212 156.045 137.208 156.416 138.133 156.898C139.07 157.38 139.93 157.972 140.711 158.675C141.492 159.365 142.156 160.147 142.703 161.019C143.263 161.891 143.699 162.848 144.012 163.89C144.324 164.919 144.48 166.013 144.48 167.171ZM137.762 167.171C137.762 166.546 137.723 165.889 137.645 165.199C137.579 164.496 137.462 163.812 137.293 163.148C137.124 162.471 136.889 161.826 136.59 161.214C136.303 160.589 135.945 160.049 135.516 159.593C135.086 159.125 134.572 158.753 133.973 158.48C133.374 158.194 132.677 158.05 131.883 158.05C131.128 158.05 130.457 158.194 129.871 158.48C129.285 158.766 128.771 159.151 128.328 159.632C127.898 160.101 127.534 160.648 127.234 161.273C126.948 161.898 126.714 162.549 126.531 163.226C126.349 163.89 126.219 164.567 126.141 165.257C126.062 165.934 126.023 166.572 126.023 167.171C126.023 167.77 126.062 168.415 126.141 169.105C126.219 169.782 126.349 170.459 126.531 171.136C126.714 171.813 126.948 172.464 127.234 173.089C127.534 173.701 127.898 174.248 128.328 174.73C128.771 175.199 129.285 175.576 129.871 175.863C130.457 176.149 131.128 176.292 131.883 176.292C132.664 176.292 133.354 176.156 133.953 175.882C134.552 175.596 135.066 175.218 135.496 174.75C135.939 174.281 136.303 173.74 136.59 173.128C136.876 172.516 137.104 171.872 137.273 171.195C137.456 170.518 137.579 169.834 137.645 169.144C137.723 168.454 137.762 167.796 137.762 167.171ZM167.84 157.933L164.129 164.085C163.973 163.565 163.771 162.979 163.523 162.328C163.276 161.677 162.97 161.071 162.605 160.511C162.241 159.938 161.805 159.463 161.297 159.085C160.789 158.695 160.203 158.5 159.539 158.5C158.927 158.5 158.393 158.656 157.938 158.968C157.495 159.281 157.117 159.691 156.805 160.199C156.492 160.694 156.232 161.26 156.023 161.898C155.828 162.523 155.672 163.161 155.555 163.812C155.451 164.45 155.379 165.069 155.34 165.667C155.301 166.253 155.281 166.761 155.281 167.191V178.5H148.66V155.941H151.199L153.875 161.195C154.24 160.348 154.656 159.574 155.125 158.871C155.594 158.154 156.134 157.542 156.746 157.035C157.358 156.514 158.048 156.11 158.816 155.824C159.598 155.537 160.477 155.394 161.453 155.394C161.961 155.394 162.527 155.44 163.152 155.531C163.777 155.609 164.389 155.752 164.988 155.96C165.587 156.156 166.141 156.416 166.648 156.742C167.156 157.067 167.553 157.464 167.84 157.933ZM192.859 178.5H186.258V175.804C185.477 176.872 184.533 177.666 183.426 178.187C182.332 178.695 181.128 178.949 179.812 178.949C178.094 178.949 176.557 178.643 175.203 178.031C173.849 177.419 172.703 176.585 171.766 175.531C170.828 174.463 170.112 173.213 169.617 171.781C169.122 170.348 168.875 168.812 168.875 167.171C168.875 165.531 169.122 163.994 169.617 162.562C170.112 161.13 170.828 159.886 171.766 158.832C172.703 157.764 173.849 156.924 175.203 156.312C176.557 155.7 178.094 155.394 179.812 155.394C180.685 155.394 181.512 155.524 182.293 155.785C183.087 156.045 183.81 156.416 184.461 156.898C185.125 157.367 185.704 157.94 186.199 158.617C186.707 159.281 187.104 160.023 187.391 160.843L190.32 155.941H192.859V178.5ZM186.219 167.171C186.219 166.585 186.186 165.967 186.121 165.316C186.069 164.665 185.971 164.02 185.828 163.382C185.685 162.744 185.483 162.139 185.223 161.566C184.975 160.98 184.65 160.466 184.246 160.023C183.855 159.567 183.38 159.209 182.82 158.949C182.26 158.688 181.609 158.558 180.867 158.558C180.125 158.558 179.48 158.695 178.934 158.968C178.387 159.229 177.918 159.587 177.527 160.042C177.137 160.485 176.811 161 176.551 161.585C176.303 162.171 176.108 162.783 175.965 163.421C175.822 164.059 175.717 164.704 175.652 165.355C175.6 165.993 175.574 166.598 175.574 167.171C175.574 167.744 175.6 168.356 175.652 169.007C175.717 169.658 175.822 170.303 175.965 170.941C176.108 171.579 176.303 172.191 176.551 172.777C176.811 173.363 177.137 173.884 177.527 174.339C177.918 174.782 178.387 175.14 178.934 175.414C179.48 175.674 180.125 175.804 180.867 175.804C181.544 175.804 182.143 175.667 182.664 175.394C183.198 175.108 183.66 174.73 184.051 174.261C184.454 173.792 184.793 173.259 185.066 172.66C185.34 172.061 185.561 171.442 185.73 170.804C185.9 170.166 186.023 169.535 186.102 168.91C186.18 168.272 186.219 167.692 186.219 167.171Z" fill="white"/>
</svg>
